<svg width="1584" height="396" viewBox="0 0 1584 396" fill="none" xmlns="http://www.w3.org/2000/svg">
<rect width="1584" height="396" fill="#222222"/>
<rect x="569.5" y="163" width="71" height="15.5312" fill="#E9E9E9"/>
<rect x="569.5" y="181.859" width="15.5312" height="52.1406" fill="#E9E9E9"/>
<rect x="588.359" y="181.859" width="33.2812" height="14.4219" fill="#E9E9E9"/>
<rect x="607.219" y="219.578" width="33.2812" height="14.4219" fill="#E9E9E9"/>
<path fill-rule="evenodd" clip-rule="evenodd" d="M625.652 181.762H640.5V215.373H625.652V215.373H603.123L603.14 233.977L588.277 233.99L588.248 200.474L588.262 200.474V200.39H625.652V181.762Z" fill="#E9E9E9"/>
<path d="M703.182 181.136V187.955H674.955V181.136H703.182ZM683.409 233.5V173.909C683.409 170.909 684.114 168.409 685.523 166.409C686.932 164.409 688.761 162.909 691.011 161.909C693.261 160.909 695.636 160.409 698.136 160.409C700.114 160.409 701.727 160.568 702.977 160.886C704.227 161.205 705.159 161.5 705.773 161.773L703.455 168.727C703.045 168.591 702.477 168.42 701.75 168.216C701.045 168.011 700.114 167.909 698.955 167.909C696.295 167.909 694.375 168.58 693.193 169.92C692.034 171.261 691.455 173.227 691.455 175.818V233.5H683.409ZM722.503 202V233.5H714.457V163.682H722.503V189.318H723.185C724.412 186.614 726.253 184.466 728.707 182.875C731.185 181.261 734.48 180.455 738.594 180.455C742.162 180.455 745.287 181.17 747.969 182.602C750.651 184.011 752.73 186.182 754.207 189.114C755.707 192.023 756.457 195.727 756.457 200.227V233.5H748.412V200.773C748.412 196.614 747.332 193.398 745.173 191.125C743.037 188.83 740.071 187.682 736.276 187.682C733.639 187.682 731.276 188.239 729.185 189.352C727.116 190.466 725.48 192.091 724.276 194.227C723.094 196.364 722.503 198.955 722.503 202ZM771.176 233.5V181.136H778.949V189.045H779.494C780.449 186.455 782.176 184.352 784.676 182.739C787.176 181.125 789.994 180.318 793.131 180.318C793.722 180.318 794.46 180.33 795.347 180.352C796.233 180.375 796.903 180.409 797.358 180.455V188.636C797.085 188.568 796.46 188.466 795.483 188.33C794.528 188.17 793.517 188.091 792.449 188.091C789.903 188.091 787.631 188.625 785.631 189.693C783.653 190.739 782.085 192.193 780.926 194.057C779.79 195.898 779.222 198 779.222 200.364V233.5H771.176ZM814.94 163.682V233.5H806.895V163.682H814.94ZM828.176 233.5V227.364L857.903 189.182V188.636H829.131V181.136H868.267V187.545L839.358 225.455V226H869.222V233.5H828.176ZM881.614 233.5V181.136H889.386V189.318H890.068C891.159 186.523 892.92 184.352 895.352 182.807C897.784 181.239 900.705 180.455 904.114 180.455C907.568 180.455 910.443 181.239 912.739 182.807C915.057 184.352 916.864 186.523 918.159 189.318H918.705C920.045 186.614 922.057 184.466 924.739 182.875C927.42 181.261 930.636 180.455 934.386 180.455C939.068 180.455 942.898 181.92 945.875 184.852C948.852 187.761 950.341 192.295 950.341 198.455V233.5H942.295V198.455C942.295 194.591 941.239 191.83 939.125 190.17C937.011 188.511 934.523 187.682 931.659 187.682C927.977 187.682 925.125 188.795 923.102 191.023C921.08 193.227 920.068 196.023 920.068 199.409V233.5H911.886V197.636C911.886 194.659 910.92 192.261 908.989 190.443C907.057 188.602 904.568 187.682 901.523 187.682C899.432 187.682 897.477 188.239 895.659 189.352C893.864 190.466 892.409 192.011 891.295 193.989C890.205 195.943 889.659 198.205 889.659 200.773V233.5H881.614ZM973.097 202V233.5H965.051V181.136H972.824V189.318H973.506C974.733 186.659 976.597 184.523 979.097 182.909C981.597 181.273 984.824 180.455 988.778 180.455C992.324 180.455 995.426 181.182 998.085 182.636C1000.74 184.068 1002.81 186.25 1004.29 189.182C1005.77 192.091 1006.51 195.773 1006.51 200.227V233.5H998.46V200.773C998.46 196.659 997.392 193.455 995.256 191.159C993.119 188.841 990.188 187.682 986.46 187.682C983.892 187.682 981.597 188.239 979.574 189.352C977.574 190.466 975.994 192.091 974.835 194.227C973.676 196.364 973.097 198.955 973.097 202Z" fill="#E9E9E9"/>
</svg>
